{"title":"Thor 2011 TS XViD V2 - DTRG - SAFCuk009 - Team MJY","uid":6366734,"size":1378300216,"categoryP":"video","categoryS":"movies","magnet":"?xt=urn:btih:c6a6d0fa145b5b012a25d1fc0041a9461e9aabf9&amp;dn=Thor+2011+TS+XViD+V2+-+DTRG+-+SAFCuk009+-+Team+MJY&amp;tr=udp%3A%2F%2Ftracker.openbittorrent.com%3A80&amp;tr=udp%3A%2F%2Fopen.demonii.com%3A1337&amp;tr=udp%3A%2F%2Ftracker.coppersurfer.tk%3A6969&amp;tr=udp%3A%2F%2Fexodus.desync.com%3A6969","seeders":0,"leechers":1,"uploader":"kadavul","files":2,"time":1304535076,"description":"[CENTER][CENTER][SIZE=&quot;5&quot;][U][B]Thor 2011 TS XViD V2 - DTRG - SAFCuk009 - Team MJY[/B][/U][/SIZE][/CENTER]\n\n [URL=http://www.grinshare.com/][IMG]http://www.grinshare.com/img/68ZK76.jpg[/IMG][/URL] \n\n[CENTER][SIZE=&quot;4&quot;]Format                           : AVI\nFormat/Info                      : Audio Video Interleave\nFile size                        : 1.28 GiB\nDuration                         : 1h 48mn\nOverall bit rate                 : 1 687 Kbps\nWriting application              : VirtualDubMod 1.5.10.3 | www.virtualdub-fr.org || (build 2550/release)\nWriting library                  : VirtualDubMod build 2550/release\n\nVideo\nID                               : 0\nFormat                           : MPEG-4 Visual\nFormat profile                   : Advanced Simple@L5\nFormat settings, BVOP            : Yes\nFormat settings, QPel            : No\nFormat settings, GMC             : No warppoints\nFormat settings, Matrix          : Custom\nCodec ID                         : XVID\nCodec ID/Hint                    : XviD\nDuration                         : 1h 48mn\nBit rate                         : 1 549 Kbps\nWidth                            : 720 pixels\nHeight                           : 304 pixels\nDisplay aspect ratio             : 2.35:1\nFrame rate                       : 25.000 fps\nColor space                      : YUV\nChroma subsampling               : 4:2:0\nBit depth                        : 8 bits\nScan type                        : Progressive\nBits/(Pixel*Frame)               : 0.283\nStream size                      : 1.18 GiB (92%)\nWriting library                  : XviD 1.2.1 (UTC 2008-12-04)\n\nAudio\nID                               : 1\nFormat                           : MPEG Audio\nFormat version                   : Version 1\nFormat profile                   : Layer 3\nCodec ID                         : 55\nCodec ID/Hint                    : MP3\nDuration                         : 1h 48mn\nBit rate mode                    : Constant\nBit rate                         : 128 Kbps\nChannel(s)                       : 2 channels\nSampling rate                    : 44.1 KHz\nStream size                      : 99.5 MiB (8%)\nAlignment                        : Split accross interleaves\nInterleave, duration             : 40 ms (1.00 video frame)\nInterleave, preload duration     : 500 ms\n\n\n\n &lt;a href=&quot;\nhttp://www.imdb.com/title/tt0800369/&quot; rel=&quot;nofollow&quot; target=&quot;_NEW&quot;&gt;\nhttp://www.imdb.com/title/tt0800369/&lt;/a&gt;\n\n\n\n\n\n\n\nUsers: 7.7/10 (9,440 votes) 132 reviews | Critics: 97 reviews\n\nThe powerful but arrogant warrior Thor is cast out of the fantastic realm of Asgard and sent to live amongst humans on Earth, where he soon becomes one of their finest defenders.\nDirector:\nKenneth Branagh\nWriters:\nAshley Miller (screenplay), Zack Stentz (screenplay), and 6 more credits Ã‚Â»\nStars:\nChris Hemsworth, Anthony Hopkins and Natalie Portman\n\n\n\n[URL=http://www.grinshare.com/][IMG]http://www.grinshare.com/img/KHMTP8.png[/IMG][/URL] [URL=http://www.grinshare.com/][IMG]http://www.grinshare.com/img/PI5A1A.png[/IMG][/URL] [URL=http://www.grinshare.com/][IMG]http://www.grinshare.com/img/XPYZ5S.png[/IMG][/URL] [URL=http://www.grinshare.com/][IMG]http://www.grinshare.com/img/TDAINS.png[/IMG][/URL]\n\n\nSOURCES:\n\n\n\nVIDEO:Thor.2011.TRUEFRENCH.TS.MD.XviD-RESOLUTiON,Thor.iNT.CAM.XviD.Hungarian-G1-CiNEDUB (IMAGiNE) ...Thanks\n\nAUDIO:IMAGiNE ..........................................Thanks\n\nWay better source than V1 few mins of v1 was used though but the rest is much improved so just a few filters nothing too special ..Sample included \n\nEnjoy!\n\n\nGreetz to Imagine ,Flawl3ss,DiLLoN,BDK,NOiR,TOXiCiNK,THC,Ez,Rx,Boobyblue,TaRiQ786,LKRG\n[/SIZE][/CENTER][/CENTER]","torrent":{"xt":"urn:btih:c6a6d0fa145b5b012a25d1fc0041a9461e9aabf9","amp;dn":"Thor+2011+TS+XViD+V2+-+DTRG+-+SAFCuk009+-+Team+MJY","amp;tr":["udp%3A%2F%2Ftracker.openbittorrent.com%3A80","udp%3A%2F%2Fopen.demonii.com%3A1337","udp%3A%2F%2Ftracker.coppersurfer.tk%3A6969","udp%3A%2F%2Fexodus.desync.com%3A6969"],"infoHash":"c6a6d0fa145b5b012a25d1fc0041a9461e9aabf9","infoHashBuffer":{"type":"Buffer","data":[198,166,208,250,20,91,91,1,42,37,209,252,0,65,169,70,30,154,171,249]},"announce":[],"urlList":[]}}